<svg xmlns="http://www.w3.org/2000/svg" width="439.18" height="124.88" viewBox="0 0 439.18 124.88"><title>Untitled-1</title><path d="M63.74,229.22H77.57v11.53a20.08,20.08,0,0,1,6.66-9.48,16.69,16.69,0,0,1,10.51-3.59q4.1,0,5.63.77l-1.92,14c-.77-.51-2.43-.77-5-.77a17.41,17.41,0,0,0-11,3.84q-4.92,3.86-4.93,12.3V288H63.74Z" transform="translate(-63.74 -193.87)"/><path d="M117.15,285.12A25.48,25.48,0,0,1,106.77,274a35.05,35.05,0,0,1-3.33-15.3,33.21,33.21,0,0,1,3.91-16.4,27,27,0,0,1,10.82-10.82,32,32,0,0,1,15.63-3.78q13.57,0,20.17,7.49t6.6,21.07a68.85,68.85,0,0,1-.39,7.18H117.92q1.41,7.81,5.57,11.27t11.59,3.46a41.13,41.13,0,0,0,10.12-1,32.18,32.18,0,0,0,7.3-2.82l4.23,9.86a32.46,32.46,0,0,1-8.71,3.59,50,50,0,0,1-13.32,1.54Q124.19,289.29,117.15,285.12Zm30-31.31q.12-7.94-3.46-11.21t-10.25-3.26q-13.44,0-15.49,14.47Z" transform="translate(-63.74 -193.87)"/><path d="M177,240.49H166.59V229.22H177V205.27l14-3.08v27H204.5v11.27H190.92V288H177Z" transform="translate(-63.74 -193.87)"/><path d="M213.21,193.87h13.45v35.35l-.52,10.88a20.83,20.83,0,0,1,7.82-8.9,22.42,22.42,0,0,1,12.55-3.52q9.09,0,14,3.78A18.45,18.45,0,0,1,267,242a76.36,76.36,0,0,1,1.67,17.67V288H255V259.57a63.93,63.93,0,0,0-.83-11.65,11.1,11.1,0,0,0-3.33-6.41q-2.51-2.17-7.24-2.17a15.14,15.14,0,0,0-7.75,2.3,18.23,18.23,0,0,0-6.47,6.73,20.5,20.5,0,0,0-2.56,10.44V288H213.21Z" transform="translate(-63.74 -193.87)"/><path d="M284.42,215.51a9,9,0,0,1-2.69-6.66,8.15,8.15,0,0,1,2.69-6.14,9.27,9.27,0,0,1,6.66-2.57,9.11,9.11,0,0,1,6.53,2.57,8.19,8.19,0,0,1,2.69,6.14,9.16,9.16,0,0,1-2.63,6.66,8.81,8.81,0,0,1-6.59,2.69A9,9,0,0,1,284.42,215.51ZM284,229.22h14.35V288H284Z" transform="translate(-63.74 -193.87)"/><path d="M314.39,229.22H328l.13,10.76a20.68,20.68,0,0,1,7.69-8.84,21.8,21.8,0,0,1,12.29-3.46q9.1,0,14,3.78A18.42,18.42,0,0,1,368.57,242a77,77,0,0,1,1.66,17.67V288H356.4V260.09q0-11.14-2.18-16.08t-9-4.93a15.19,15.19,0,0,0-7.82,2.37,18.81,18.81,0,0,0-6.59,6.85,20.42,20.42,0,0,0-2.63,10.51V288H314.39Z" transform="translate(-63.74 -193.87)"/><path d="M400.52,317a43.36,43.36,0,0,1-9-3.33l3.08-12.81A33,33,0,0,0,413,306.32,21.91,21.91,0,0,0,426,302.61q5.25-3.72,5.38-14.48v-10.5a21.17,21.17,0,0,1-8.71,8.33,28.22,28.22,0,0,1-27.41-.45,26.67,26.67,0,0,1-10.12-10.82,37.88,37.88,0,0,1-.19-32.34A25.68,25.68,0,0,1,395,231.52a29.49,29.49,0,0,1,15.24-3.84,25.74,25.74,0,0,1,9.61,1.79,28,28,0,0,1,7.62,4.42,13.78,13.78,0,0,1,4.16,5.19l.26-9.86H444.9v58.4q0,15-7.68,23.06t-23.83,8.07A46.94,46.94,0,0,1,400.52,317Zm24.91-44.38q5-5.06,5-13.25v-.9a20.71,20.71,0,0,0-2.31-9.86,17.22,17.22,0,0,0-6.27-6.79,16.38,16.38,0,0,0-8.71-2.43q-8.2,0-12.68,5.31T396,258.42q0,8.58,4.42,13.9t12.75,5.31A16.57,16.57,0,0,0,425.43,272.57Z" transform="translate(-63.74 -193.87)"/><path d="M466.87,287.69q-6.6-1.6-9.42-3.78L462.06,273a29.84,29.84,0,0,0,17.55,5.38q9.86,0,9.86-5.76a4.53,4.53,0,0,0-2.05-4,35.78,35.78,0,0,0-7.3-3.33l-4.86-1.8a37.58,37.58,0,0,1-12.17-7.36,15,15,0,0,1-4.48-11.34A14.65,14.65,0,0,1,465,232.23q6.33-4.54,17-4.55a46.82,46.82,0,0,1,10.31,1.15,23.94,23.94,0,0,1,7.75,2.95l-5,11a13.71,13.71,0,0,0-5.31-2.89,25.72,25.72,0,0,0-8.14-1.21q-9.09,0-9.09,5.5a5.26,5.26,0,0,0,2.43,4.68,38.36,38.36,0,0,0,7.94,3.52c.34.09,1.67.56,4,1.41Q495,257,499,261.11a14.45,14.45,0,0,1,4,10.5q0,8.72-6.59,13.19t-16.72,4.49A54.27,54.27,0,0,1,466.87,287.69Z" transform="translate(-63.74 -193.87)"/></svg>